<?xml version="1.0" standalone="no"?><!DOCTYPE svg PUBLIC "-//W3C//DTD SVG 1.1//EN" "http://www.w3.org/Graphics/SVG/1.1/DTD/svg11.dtd"><svg t="1657697623634" class="icon" viewBox="0 0 1024 1024" version="1.1" xmlns="http://www.w3.org/2000/svg" p-id="3682" xmlns:xlink="http://www.w3.org/1999/xlink" width="200" height="200"><defs><style type="text/css">@font-face { font-family: feedback-iconfont; src: url("//at.alicdn.com/t/font_1031158_u69w8yhxdu.woff2?t=1630033759944") format("woff2"), url("//at.alicdn.com/t/font_1031158_u69w8yhxdu.woff?t=1630033759944") format("woff"), url("//at.alicdn.com/t/font_1031158_u69w8yhxdu.ttf?t=1630033759944") format("truetype"); }
</style></defs><path d="M512 512m-512 0a512 512 0 1 0 1024 0 512 512 0 1 0-1024 0Z" fill="#E8E8E8" p-id="3683"></path><path d="M418.048 608.292571l1.737143 0.804572c4.406857 1.755429 8.082286 5.065143 10.368 9.362286 1.152 2.102857 1.901714 4.388571 2.212571 6.784 0.530286 3.547429 0.310857 7.168-0.621714 10.605714-1.097143 4.169143-3.565714 7.808-6.948571 10.313143a29.44 29.44 0 0 1-12.361143 5.193143 50.505143 50.505143 0 0 1-9.325715 1.097142H357.814857c0-1.024-0.420571-82.962286 0-85.046857h40.923429a43.337143 43.337143 0 0 1 16.274285 2.944c3.474286 1.316571 6.564571 3.474286 9.014858 6.345143 2.761143 3.072 4.388571 7.058286 4.589714 11.264 0.457143 4.827429-0.731429 9.691429-3.328 13.714286-1.426286 2.157714-3.236571 4.022857-5.357714 5.467428l-1.664 1.152h-0.219429z m-41.472 28.854858h24.521143c1.865143-0.073143 3.712-0.365714 5.485714-0.932572a8.539429 8.539429 0 0 0 5.632-4.260571 10.349714 10.349714 0 0 0 1.042286-5.979429 8.996571 8.996571 0 0 0-1.682286-4.626286 8.521143 8.521143 0 0 0-3.803428-2.962285 20.169143 20.169143 0 0 0-8.192-1.572572h-23.003429v20.333715z m0-35.273143h19.108571c2.340571 0.073143 4.681143-0.219429 6.948572-0.859429a10.002286 10.002286 0 0 0 5.138286-3.181714 9.289143 9.289143 0 0 0 1.792-8.155429 9.270857 9.270857 0 0 0-5.339429-6.272 21.193143 21.193143 0 0 0-7.917714-1.444571h-19.748572v19.931428zM304.512 633.965714h-37.248l-6.948571 18.413715h-19.584c0.420571-0.877714 0.694857-1.810286 1.097142-2.669715l9.179429-21.650285 11.885714-27.830858c4.388571-10.185143 8.685714-20.278857 12.982857-30.445714 0-0.804571 0.64-1.883429 1.188572-2.230857 0.548571-0.365714 1.609143 0 2.432 0h14.811428a1.316571 1.316571 0 0 1 1.042286 0.182857 1.444571 1.444571 0 0 1 0.621714 0.914286c3.894857 9.216 7.862857 18.377143 11.812572 27.611428 6.4 14.427429 12.708571 29.622857 19.108571 44.507429 1.517714 3.602286 3.108571 7.204571 4.644572 10.971429a6.217143 6.217143 0 0 1 0 0.841142h-17.718857a1.499429 1.499429 0 0 1-1.097143-0.237714 1.590857 1.590857 0 0 1-0.64-0.987428c-2.358857-5.540571-4.717714-10.971429-6.948572-16.438858 0-0.365714 0-0.585143-0.475428-1.005714l-0.146286 0.073143z m-5.138286-14.921143l-12.8-32.182857-12.708571 32.256 25.508571-0.073143zM164.571429 567.771429h18.834285v68.571428h41.142857v16.091429H164.48c-1.316571 0 0-83.309714 0-84.662857" fill="#F5A200" p-id="3684"></path><path d="M485.522286 444.123429a55.917714 55.917714 0 0 0-15.213715-3.254858 57.947429 57.947429 0 0 0-22.509714 2.669715 51.017143 51.017143 0 0 0-29.952 24.539428 51.931429 51.931429 0 0 0-6.180571 21.632c-0.64 7.570286 0.274286 15.177143 2.706285 22.363429 2.084571 6.454857 5.485714 12.379429 9.929143 17.371428l16.475429-15.140571a31.286857 31.286857 0 0 1-5.211429-12.982857c-1.28-6.4-0.877714-13.056 1.188572-19.254857 1.664-5.321143 4.754286-10.057143 8.886857-13.622857 4.150857-3.584 9.179429-5.888 14.518857-6.656 4.608-0.950857 9.362286-0.804571 13.897143 0.438857l20.077714-13.842286a34.194286 34.194286 0 0 0-8.594286-4.260571z m34.267428 42.843428a50.157714 50.157714 0 0 0-13.074285-28.854857v-0.420571l-14.866286 17.517714s0.347429 0.438857 0.347428 0.658286c2.011429 3.346286 3.401143 7.076571 4.096 10.971428 0.457143 2.377143 0.731429 4.772571 0.841143 7.204572 0.219429 7.844571-2.230857 15.506286-6.948571 21.632-4.534857 5.851429-10.989714 9.764571-18.139429 10.971428a32.786286 32.786286 0 0 1-14.738285-0.804571l-22.162286 12.708571c2.102857 1.316571 4.260571 2.505143 6.473143 3.602286 6.710857 3.108571 13.970286 4.845714 21.321143 5.046857a59.245714 59.245714 0 0 0 21.888-2.816 50.395429 50.395429 0 0 0 27.721142-22.125714c6.4-10.605714 8.868571-23.222857 7.021715-35.584l0.219428 0.292571zM233.636571 505.069714v-62.537143h22.308572v103.222858h-17.865143a2.157714 2.157714 0 0 1-1.060571-0.256 2.249143 2.249143 0 0 1-0.804572-0.749715l-47.725714-60.233143a2.377143 2.377143 0 0 0-1.133714-0.859428v62.098286H164.571429v-1.225143-101.339429h18.066285a2.011429 2.011429 0 0 1 1.060572 0.201143 2.102857 2.102857 0 0 1 0.822857 0.731429l48 60.745142 0.841143 1.005715M317.44 442.532571h22.381714v48.548572l1.097143-1.097143 42.678857-46.500571a2.816 2.816 0 0 1 2.358857-1.024h23.625143l-41.069714 46.244571 43.227429 57.051429h-26.057143a2.176 2.176 0 0 1-1.737143-1.005715l-20.845714-26.843428-9.033143-11.465143-0.914286-1.078857a7.844571 7.844571 0 0 0-0.768 0.786285l-11.392 12.562286a2.56 2.56 0 0 0-0.694857 1.938286v25.106286h-22.857143v-103.222858zM662.582857 442.459429H685.714286l44.196571 103.314285h-24.192c-2.925714-7.222857-5.76-14.445714-8.740571-21.650285H650.971429l-8.758858 21.632h-24.100571l44.470857-103.131429v-0.164571z m27.245714 63.561142c0-1.225143-15.232-38.747429-15.926857-39.68-5.357714 13.202286-10.624 26.404571-16.054857 39.68h31.963429zM804.534857 545.755429h-22.857143v-83.968h-32.457143v-19.254858h87.076572v19.401143h-31.762286v83.821715zM555.776 526.500571h49.828571v19.254858H532.845714v-103.222858h22.857143v83.949715h0.073143zM297.910857 545.755429h-22.857143v-0.786286-101.778286h22.784l0.073143 102.564572zM859.428571 532.845714c0 3.84-1.462857 7.497143-4.077714 10.203429a13.641143 13.641143 0 0 1-9.819428 4.224 13.641143 13.641143 0 0 1-9.819429-4.224 14.72 14.72 0 0 1-4.077714-10.203429c0-3.84 1.462857-7.497143 4.077714-10.203428a13.641143 13.641143 0 0 1 9.819429-4.205715c3.675429 0 7.222857 1.499429 9.819428 4.205715a14.701714 14.701714 0 0 1 4.077714 10.203428z" fill="#040000" p-id="3685"></path><path d="M516.022857 438.857143l-70.875428 49.115428 17.316571 13.129143-48.365714 44.288 75.940571-44.288-12.928-14.994285L516.022857 438.857143z" fill="#F5A200" p-id="3686"></path></svg>